<svg width="68" height="60" viewBox="0 0 68 60" fill="none" xmlns="http://www.w3.org/2000/svg">
<path d="M58.75 42.7083H17.0417L9.02084 10.625H66.7708L58.75 42.7083Z" fill="#5D608A"/>
<path d="M1 1H6.61458L9.02083 10.625M9.02083 10.625L17.0417 42.7083H58.75L66.7708 10.625H9.02083Z" stroke="#5D608A" stroke-width="2" stroke-linecap="round" stroke-linejoin="round"/>
<path d="M17.0417 58.75C19.6995 58.75 21.8542 56.5954 21.8542 53.9375C21.8542 51.2796 19.6995 49.125 17.0417 49.125C14.3838 49.125 12.2292 51.2796 12.2292 53.9375C12.2292 56.5954 14.3838 58.75 17.0417 58.75Z" stroke="#5D608A" stroke-width="2" stroke-linecap="round" stroke-linejoin="round"/>
<path d="M58.75 58.75C61.4079 58.75 63.5625 56.5954 63.5625 53.9375C63.5625 51.2796 61.4079 49.125 58.75 49.125C56.0921 49.125 53.9375 51.2796 53.9375 53.9375C53.9375 56.5954 56.0921 58.75 58.75 58.75Z" stroke="#5D608A" stroke-width="2" stroke-linecap="round" stroke-linejoin="round"/>
</svg>
