<svg width="37" height="37" viewBox="0 0 37 37" fill="none" xmlns="http://www.w3.org/2000/svg">
<path d="M15.5554 18.443L29.8528 13.3061V21.847C28.9565 21.3345 27.9407 21.0681 26.9083 21.0746C23.8897 21.0746 21.443 23.273 21.443 25.9848C21.443 28.6966 23.8897 30.895 26.9083 30.895C29.9284 30.895 32.375 28.6966 32.375 25.9848V11.5502C32.375 9.82351 32.375 8.37589 32.2393 7.22272C32.2208 7.06294 32.1987 6.90359 32.173 6.7448C32.0435 5.95855 31.8123 5.22164 31.3683 4.60805C31.0914 4.22143 30.7364 3.89735 30.3261 3.65684L30.3123 3.64914C29.1236 2.93843 27.7855 2.9893 26.4087 3.3038C25.0767 3.60905 23.4241 4.2288 21.3983 4.99193L17.8772 6.31622C16.929 6.67234 16.1243 6.97451 15.4922 7.28747C14.8216 7.62047 14.2435 8.01359 13.8087 8.59943C13.3755 9.18526 13.1951 9.81734 13.1119 10.5018C13.0348 11.1463 13.0348 11.9294 13.0348 12.8529V24.8686C12.1385 24.3562 11.1226 24.0897 10.0902 24.0963C7.07163 24.0963 4.625 26.2947 4.625 29.0065C4.625 31.7183 7.07163 33.9167 10.0902 33.9167C13.1103 33.9167 15.557 31.7183 15.557 29.0065L15.5554 18.443Z" fill="#5D608A"/>
</svg>
