<svg width="80" height="80" viewBox="0 0 80 80" fill="none" xmlns="http://www.w3.org/2000/svg">
<path d="M3.90625 5.36865V11.739L12.9688 18.5312H67.0312L76.0938 11.739V5.36865L65.5 13.8483H14.5062L3.90625 5.36865ZM72.5 17.9374L67.9688 21.3437H67.8125V74.6249H72.5V17.9374ZM7.8125 18.1874V74.6249H12.5V21.3437H12.0312L7.8125 18.1874ZM21.0469 21.3437L25.1719 31.6562C25.8906 30.9999 26.6719 30.3905 27.4844 29.8437L24.0781 21.3437H21.0469ZM55.9219 21.3437L52.5156 29.8437C53.3281 30.3905 54.1094 30.9999 54.8281 31.6562L58.9531 21.3437H55.9219ZM40 28.8437C29.6719 28.8437 21.4062 36.6405 21.4062 46.1874C21.4062 55.7343 29.6719 63.5312 40 63.5312C42.375 63.5312 44.625 63.1249 46.7031 62.3749L36.375 48.7187C34.5156 48.6405 32.7187 47.7655 31.5156 46.1874C29.3906 43.3905 29.9531 39.3437 32.7656 37.2187C35.5781 35.0937 39.6094 35.6562 41.7344 38.4687C42.9375 40.0468 43.2813 42.0312 42.8438 43.828L53.5938 58.0311C56.7031 54.9218 58.5938 50.7499 58.5938 46.1874C58.5938 36.6405 50.3281 28.8437 40 28.8437ZM36.6094 38.7187C35.8594 38.7343 35.1094 38.9687 34.4531 39.4687C32.8594 40.6718 32.5625 42.9062 33.7656 44.4999C34.9688 46.0937 37.2031 46.4062 38.7969 45.203C40.3906 43.9843 40.7031 41.7499 39.5 40.1562C38.7813 39.203 37.7031 38.7187 36.6094 38.7187ZM41.4219 46.578C41.1406 46.8905 40.8438 47.1718 40.5 47.4374C40.1563 47.703 39.7969 47.9062 39.4219 48.0937L56.7656 71.0155L58.7656 69.5155L41.4219 46.578Z" fill="black"/>
</svg>
