<svg width="87" height="87" viewBox="0 0 87 96" fill="none" xmlns="http://www.w3.org/2000/svg">
<path d="M34.1956 77.245C34.5175 76.1524 35.249 75.2298 36.2344 74.6735C37.2198 74.1173 38.3814 73.9713 39.4719 74.2666C40.5623 74.5619 41.4956 75.2753 42.0729 76.2548C42.6503 77.2344 42.8262 78.4027 42.5633 79.5112L41.4453 83.7375C41.1476 84.8584 40.4211 85.8139 39.4256 86.394C38.4301 86.9741 37.2471 87.1311 36.1369 86.8306C35.0267 86.5301 34.0803 85.7966 33.5057 84.7915C32.9312 83.7865 32.7756 82.5921 33.0733 81.4713L34.1956 77.245ZM24.6796 69.0988C25.7897 69.3983 26.7365 70.1307 27.3119 71.1349C27.8872 72.1391 28.0439 73.3329 27.7476 74.4538L26.6209 78.68C26.4885 79.2506 26.2438 79.7886 25.9015 80.2619C25.5591 80.7353 25.1261 81.1343 24.628 81.4354C24.1299 81.7365 23.577 81.9335 23.0021 82.0147C22.4272 82.0959 21.8419 82.0596 21.2812 81.908C20.7204 81.7564 20.1955 81.4926 19.7377 81.1323C19.2798 80.7719 18.8984 80.3224 18.6159 79.8103C18.3335 79.2982 18.1559 78.7341 18.0936 78.1514C18.0313 77.5687 18.0856 76.9792 18.2533 76.4181L19.3756 72.1919C19.6732 71.0719 20.399 70.117 21.3935 69.537C22.3881 68.957 23.57 68.7994 24.6796 69.0988ZM56.4603 69.0988C57.5696 69.3992 58.5154 70.132 59.0898 71.1361C59.6643 72.1402 59.8204 73.3335 59.5239 74.4538L58.4016 78.68C58.2566 79.2374 58.004 79.7603 57.6583 80.2188C57.3126 80.6773 56.8806 81.0624 56.387 81.3518C55.8935 81.6413 55.3482 81.8294 54.7824 81.9055C54.2166 81.9816 53.6416 81.944 53.0902 81.7951C52.5388 81.6461 52.0221 81.3886 51.5695 81.0375C51.117 80.6863 50.7377 80.2483 50.4533 79.7487C50.1689 79.249 49.9851 78.6976 49.9123 78.1261C49.8396 77.5545 49.8795 76.9741 50.0296 76.4181L51.1563 72.1919C51.4539 71.0719 52.1797 70.117 53.1742 69.537C54.1687 68.957 55.3507 68.7994 56.4603 69.0988ZM43.9889 57.2469C44.5387 57.3956 45.054 57.6522 45.5055 58.0021C45.957 58.3519 46.3358 58.7882 46.6203 59.2859C46.9048 59.7835 47.0894 60.3329 47.1636 60.9026C47.2378 61.4724 47.2001 62.0512 47.0526 62.6062L45.9303 66.8325C45.6326 67.9534 44.9061 68.909 43.9106 69.489C42.9151 70.0691 41.7321 70.2262 40.6219 69.9256C39.5117 69.6251 38.5653 68.8916 37.9907 67.8865C37.4162 66.8815 37.2606 65.6871 37.5583 64.5662L38.6806 60.34C38.8279 59.785 39.0821 59.2647 39.4286 58.8088C39.7751 58.353 40.2072 57.9705 40.7002 57.6833C41.1931 57.3961 41.7373 57.2097 42.3016 57.1348C42.8658 57.0599 43.4392 57.098 43.9889 57.2469ZM41.1766 1.34669e-06C46.9073 -0.0017788 52.5022 1.76131 57.2145 5.05392C61.9267 8.34653 65.5321 13.012 67.5493 18.4275C72.2389 19.7283 76.4734 22.3306 79.7718 25.939C83.0703 29.5473 85.3006 34.017 86.2094 38.8407C87.1183 43.6644 86.6694 48.6488 84.9136 53.2278C83.1579 57.8069 80.1656 61.7972 76.2766 64.7456C75.823 65.1046 75.3031 65.3686 74.7472 65.5223C74.1913 65.6759 73.6106 65.716 73.0392 65.6403C72.4678 65.5645 71.917 65.3745 71.4192 65.0812C70.9214 64.7879 70.4866 64.3974 70.1402 63.9324C69.7937 63.4674 69.5426 62.9372 69.4016 62.373C69.2606 61.8089 69.2324 61.2219 69.3188 60.6466C69.4052 60.0713 69.6044 59.5192 69.9047 59.0226C70.2051 58.526 70.6005 58.0948 71.0679 57.7544C73.2279 56.1295 74.9808 54.0165 76.1863 51.5846C77.3918 49.1527 78.0164 46.4695 78.0099 43.75C78.0121 39.6046 76.5568 35.5931 73.903 32.4299C71.2493 29.2667 67.5696 27.1573 63.5193 26.4775C62.6918 26.3394 61.921 25.9641 61.2987 25.3963C60.6765 24.8286 60.2289 24.0922 60.0093 23.275C58.7465 18.4598 55.7229 14.3068 51.5477 11.6531C47.3725 8.99931 42.3562 8.04203 37.5097 8.97416C32.6632 9.90629 28.3468 12.6585 25.4304 16.6762C22.514 20.6939 21.2144 25.6783 21.7936 30.625C21.9088 31.6876 21.6386 32.7563 21.0331 33.6332C20.4275 34.51 19.5277 35.1355 18.5003 35.3937C16.2053 35.9796 14.1121 37.1865 12.4463 38.8846C10.7804 40.5826 9.60513 42.7074 9.04695 45.03C8.48878 47.3526 8.5689 49.7849 9.2787 52.0649C9.98849 54.3449 11.301 56.3862 13.0749 57.9688C13.9369 58.7369 14.4613 59.8193 14.5328 60.9778C14.6043 62.1363 14.2171 63.276 13.4563 64.1463C12.6955 65.0165 11.6234 65.5459 10.4759 65.6181C9.32844 65.6904 8.19956 65.2994 7.3376 64.5312C4.6038 62.0977 2.52221 59.0072 1.2855 55.5459C0.0487769 52.0845 -0.303104 48.364 0.262419 44.7289C0.827943 41.0938 2.2926 37.6614 4.52082 34.7495C6.74904 31.8376 9.66883 29.5402 13.0099 28.07C13.1057 20.5918 16.1154 13.4526 21.3874 8.1988C26.6593 2.94496 33.769 -0.000623185 41.1766 1.34669e-06ZM29.1689 52.1938C29.7187 52.3425 30.234 52.5991 30.6855 52.949C31.137 53.2988 31.5158 53.735 31.8003 54.2327C32.0848 54.7304 32.2694 55.2798 32.3436 55.8495C32.4178 56.4192 32.3801 56.9981 32.2326 57.5531L31.1103 61.7794C30.8126 62.9002 30.0861 63.8558 29.0906 64.4359C28.0951 65.016 26.9121 65.173 25.8019 64.8725C24.6917 64.572 23.7453 63.8385 23.1707 62.8334C22.5962 61.8283 22.4406 60.634 22.7383 59.5131L23.8606 55.2869C24.0079 54.7318 24.2621 54.2115 24.6086 53.7557C24.9551 53.2999 25.3872 52.9174 25.8802 52.6302C26.3731 52.3429 26.9173 52.1566 27.4816 52.0817C28.0458 52.0068 28.6192 52.0449 29.1689 52.1938ZM60.9453 52.1938C61.495 52.3425 62.0104 52.5991 62.4619 52.949C62.9134 53.2988 63.2922 53.735 63.5767 54.2327C63.8612 54.7304 64.0458 55.2798 64.1199 55.8495C64.1941 56.4192 64.1564 56.9981 64.0089 57.5531L62.8909 61.7794C62.5933 62.9002 61.8668 63.8558 60.8713 64.4359C59.8758 65.016 58.6928 65.173 57.5826 64.8725C56.4724 64.572 55.5259 63.8385 54.9514 62.8334C54.3768 61.8283 54.2213 60.634 54.5189 59.5131L55.6369 55.2869C55.7843 54.7318 56.0384 54.2115 56.385 53.7557C56.7315 53.2999 57.1635 52.9174 57.6565 52.6302C58.1494 52.3429 58.6936 52.1566 59.2579 52.0817C59.8222 52.0068 60.3956 52.0449 60.9453 52.1938Z" fill="black"/>
</svg>
