<svg width="80" height="80" viewBox="0 0 80 80" fill="none" xmlns="http://www.w3.org/2000/svg">
<path d="M40 12.5667L37.5 15.3667C37.5 15.3667 33.2333 20.2 28.9333 26.4667C24.6333 32.7333 20 40.2333 20 47.4333C20 52.7376 22.1071 57.8247 25.8579 61.5755C29.6086 65.3262 34.6957 67.4333 40 67.4333C45.3043 67.4333 50.3914 65.3262 54.1421 61.5755C57.8929 57.8247 60 52.7376 60 47.4333C60 40.2333 55.3667 32.7333 51.0667 26.4667C46.7667 20.2 42.5 15.3667 42.5 15.3667L40 12.5667ZM40 23C41.4667 24.7333 42.8 26.1666 45.6 30.2333C49.6333 36.1 53.3333 43.5666 53.3333 47.4333C53.3333 54.8333 47.4 60.7666 40 60.7666C32.6 60.7666 26.6667 54.8333 26.6667 47.4333C26.6667 43.5666 30.3667 36.1 34.4 30.2333C37.2 26.1666 38.5333 24.7333 40 23Z" fill="black"/>
</svg>
