<svg width="37" height="37" viewBox="0 0 37 37" fill="none" xmlns="http://www.w3.org/2000/svg">
<path d="M12.3333 30.8333H13.875V32.375H12.3333V33.9166H10.7917V35.4583H1.54166V26.2083H3.08332V24.6666H4.62499V23.125H6.16666V24.6666H7.70832V26.2083H9.24999V27.75H10.7917V29.2916H12.3333V30.8333ZM26.2083 15.4166H27.75V18.5H26.2083V20.0416H24.6667V21.5833H23.125V23.125H21.5833V24.6666H20.0417V26.2083H18.5V27.75H16.9583V29.2916H15.4167V27.75H13.875V26.2083H12.3333V24.6666H10.7917V23.125H9.24999V21.5833H7.70832V20.0416H9.24999V18.5H10.7917V16.9583H12.3333V15.4166H13.875V13.875H15.4167V12.3333H16.9583V10.7916H18.5V9.24996H21.5833V10.7916H23.125V12.3333H24.6667V13.875H26.2083V15.4166ZM35.4583 6.16663V10.7916H33.9167V12.3333H32.375V13.875H29.2917V12.3333H27.75V10.7916H26.2083V9.24996H24.6667V7.70829H23.125V4.62496H24.6667V3.08329H26.2083V1.54163H30.8333V3.08329H32.375V4.62496H33.9167V6.16663H35.4583Z" fill="black"/>
</svg>
