<svg width="71" height="71" viewBox="0 0 71 71" fill="none" xmlns="http://www.w3.org/2000/svg">
<path fill-rule="evenodd" clip-rule="evenodd" d="M23.6667 20.7083C23.6667 17.5699 24.9134 14.5601 27.1326 12.3409C29.3517 10.1217 32.3616 8.875 35.5 8.875C38.6384 8.875 41.6483 10.1217 43.8674 12.3409C46.0866 14.5601 47.3333 17.5699 47.3333 20.7083C47.3333 23.8467 46.0866 26.8566 43.8674 29.0758C41.6483 31.2949 38.6384 32.5417 35.5 32.5417C32.3616 32.5417 29.3517 31.2949 27.1326 29.0758C24.9134 26.8566 23.6667 23.8467 23.6667 20.7083ZM23.6667 38.4583C19.7437 38.4583 15.9814 40.0167 13.2074 42.7907C10.4334 45.5647 8.875 49.327 8.875 53.25C8.875 55.6038 9.81004 57.8612 11.4744 59.5256C13.1388 61.19 15.3962 62.125 17.75 62.125H53.25C55.6038 62.125 57.8612 61.19 59.5256 59.5256C61.19 57.8612 62.125 55.6038 62.125 53.25C62.125 49.327 60.5666 45.5647 57.7926 42.7907C55.0186 40.0167 51.2563 38.4583 47.3333 38.4583H23.6667Z" fill="#5D608A"/>
</svg>
