<svg width="81" height="81" viewBox="0 0 81 81" fill="none" xmlns="http://www.w3.org/2000/svg">
<path d="M31.2187 74.25L29.8687 63.45C29.1375 63.1687 28.449 62.8312 27.8032 62.4375C27.1575 62.0438 26.5241 61.6219 25.9031 61.1719L15.8625 65.3906L6.58124 49.3594L15.2719 42.7781C15.2156 42.3844 15.1875 42.0053 15.1875 41.6408V39.3626C15.1875 38.9959 15.2156 38.6156 15.2719 38.2219L6.58124 31.6406L15.8625 15.6094L25.9031 19.8281C26.5219 19.3781 27.1687 18.9563 27.8437 18.5625C28.5187 18.1687 29.1937 17.8312 29.8687 17.55L31.2187 6.75H49.7812L51.1312 17.55C51.8625 17.8312 52.5521 18.1687 53.2001 18.5625C53.8481 18.9563 54.4804 19.3781 55.0969 19.8281L65.1375 15.6094L74.4187 31.6406L65.7281 38.2219C65.7844 38.6156 65.8125 38.9959 65.8125 39.3626V41.6374C65.8125 42.0041 65.7562 42.3844 65.6437 42.7781L74.3344 49.3594L65.0531 65.3906L55.0969 61.1719C54.4781 61.6219 53.8312 62.0438 53.1562 62.4375C52.4812 62.8312 51.8062 63.1687 51.1312 63.45L49.7812 74.25H31.2187ZM40.6687 52.3125C43.9312 52.3125 46.7156 51.1594 49.0219 48.8531C51.3281 46.5469 52.4812 43.7625 52.4812 40.5C52.4812 37.2375 51.3281 34.4531 49.0219 32.1469C46.7156 29.8406 43.9312 28.6875 40.6687 28.6875C37.35 28.6875 34.551 29.8406 32.2717 32.1469C29.9925 34.4531 28.854 37.2375 28.8562 40.5C28.8585 43.7625 29.9981 46.5469 32.2751 48.8531C34.5521 51.1594 37.35 52.3125 40.6687 52.3125Z" fill="#5D608A"/>
</svg>
